<?xml version="1.0" encoding="utf-8"?>
<svg xmlns="http://www.w3.org/2000/svg" width="200" height="200" viewBox="0 0 200 200" fill="none">
  <defs>
    <filter id="mintLaserGlow" x="-50%" y="-50%" width="200%" height="200%">
      <feDropShadow dx="0" dy="0" stdDeviation="2" flood-color="#7FFFD4" flood-opacity="0.9"/>
      <feDropShadow dx="0" dy="0" stdDeviation="6" flood-color="#7FFFD4" flood-opacity="0.5"/>
    </filter>
    <filter id="softClayShadow" x="-20%" y="-20%" width="140%" height="140%">
      <feDropShadow dx="1" dy="3" stdDeviation="3" flood-color="#000000" flood-opacity="0.2"/>
    </filter>
  </defs>
  <g id="RocketPawLogo">
    <circle cx="55" cy="55" r="18" fill="#F0F0F0" filter="url(#softClayShadow)"/>
    <ellipse cx="55" cy="55" rx="24" ry="8" stroke="#7FFFD4" stroke-width="2" transform="rotate(-20 55 55)" filter="url(#mintLaserGlow)"/>
    <circle cx="100" cy="35" r="22" fill="#F0F0F0" filter="url(#softClayShadow)"/>
    <ellipse cx="100" cy="35" rx="28" ry="9" stroke="#7FFFD4" stroke-width="2" transform="rotate(0 100 35)" filter="url(#mintLaserGlow)"/>
    <circle cx="145" cy="55" r="18" fill="#F0F0F0" filter="url(#softClayShadow)"/>
    <ellipse cx="145" cy="55" rx="24" ry="8" stroke="#7FFFD4" stroke-width="2" transform="rotate(20 145 55)" filter="url(#mintLaserGlow)"/>
    <g id="RocketPad" transform="translate(100, 120)">
      <path d="M0 -55 C-25 -55 -35 -20 -35 10 C-35 40 -20 60 0 60 C20 60 35 40 35 10 C35 -20 25 -55 0 -55Z" fill="#F0F0F0" filter="url(#softClayShadow)"/>
      <circle cx="0" cy="-15" r="10" fill="#7FFFD4" filter="url(#mintLaserGlow)"/>
      <circle cx="0" cy="-15" r="6" fill="#FFFFFF"/>
      <path d="M-30 15 L-55 60 L-20 45 Z" fill="#7FFFD4" filter="url(#mintLaserGlow)"/>
      <path d="M30 15 L55 60 L20 45 Z" fill="#7FFFD4" filter="url(#mintLaserGlow)"/>
      <path d="M-12 50 L0 78 L12 50 Z" fill="#7FFFD4" filter="url(#mintLaserGlow)"/>
    </g>
  </g>
</svg>
